<svg xmlns="http://www.w3.org/2000/svg" xmlns:xlink="http://www.w3.org/1999/xlink" width="300" height="400">
  <g transform="matrix(.89332 0 0 .89332 -207.387 -311.331)">
    <circle r="160" cy="572.362" cx="400" fill="#fff" stroke="#000"  stroke-width="10.033" stroke-linejoin="round"/>
    <circle r="145" cy="572.362" cx="400" stroke="#000"  stroke-width="10.033" stroke-linejoin="round"/>
    <g transform="translate(.354)">
      <path d="M392.327 496.48c-8.272-82.935 24.083-82.938 15.288 0" id="a" fill="none" fill-rule="evenodd" stroke="#fff"  stroke-width="8.955" stroke-linecap="round"/>
      <g transform="translate(-31 -64.5)">
        <use height="100%" width="100%" transform="rotate(20 230.025 691.537)" xlink:href="#a"/>
        <use height="100%" width="100%" transform="rotate(40 325.532 646.348)" xlink:href="#a"/>
        <use height="100%" width="100%" transform="rotate(60 358.702 630.653)" xlink:href="#a"/>
        <use height="100%" width="100%" transform="rotate(80 376.35 622.303)" xlink:href="#a"/>
        <use height="100%" width="100%" transform="rotate(100 387.87 616.852)" xlink:href="#a"/>
        <use height="100%" width="100%" transform="rotate(120 396.42 612.807)" xlink:href="#a"/>
        <use height="100%" width="100%" transform="rotate(140 403.39 609.509)" xlink:href="#a"/>
        <use height="100%" width="100%" transform="rotate(160 409.52 606.608)" xlink:href="#a"/>
        <use height="100%" width="100%" transform="rotate(180 415.28 603.883)" xlink:href="#a"/>
        <use height="100%" width="100%" transform="rotate(-160 421.04 601.158)" xlink:href="#a"/>
        <use height="100%" width="100%" transform="rotate(-140 427.17 598.258)" xlink:href="#a"/>
        <use height="100%" width="100%" transform="rotate(-120 434.14 594.96)" xlink:href="#a"/>
        <use height="100%" width="100%" transform="rotate(-100 442.69 590.914)" xlink:href="#a"/>
        <use height="100%" width="100%" transform="rotate(-80 454.21 585.464)" xlink:href="#a"/>
        <use height="100%" width="100%" transform="rotate(-60 471.859 577.113)" xlink:href="#a"/>
        <use height="100%" width="100%" transform="rotate(-40 505.028 561.419)" xlink:href="#a"/>
        <use height="100%" width="100%" transform="rotate(-20 600.536 516.23)" xlink:href="#a"/>
      </g>
    </g>
    <circle r="84.474" cy="572.362" cx="400" fill="#fff" stroke="#000"  stroke-width="10.24" stroke-linejoin="round"/>
    <circle r="72.315" cy="572.362" cx="400" fill="#b93c3c" />
    <g transform="translate(-.177 .088)" id="c">
      <path d="M401.332 554.245c-3.146-9.94-29.568-32.568-1.223-34.015 29.37 1.6.872 23.529-1.718 34.178" fill="none" fill-rule="evenodd" stroke="#fff"  stroke-width="23.11"/>
      <path d="M400 555.191v-25.657" fill="none" fill-rule="evenodd" stroke="#b93c3c"  stroke-width="6" stroke-linecap="round" stroke-linejoin="round"/>
      <circle cx="400" cy="527.834" r="4.819" fill="#b93c3c"  stroke-width="3" stroke-linecap="round" stroke-linejoin="round"/>
      <path d="M404.688 557.487l6.565-16.11" id="b" fill="none" fill-rule="evenodd" stroke="#b93c3c"  stroke-width="4" stroke-linecap="round"/>
      <use xlink:href="#b" width="100%" height="100%" transform="matrix(-1 0 0 1 799.938 0)"/>
    </g>
    <circle r="16.035" cy="572.362" cx="400" fill="#fff"  stroke-width="6.67" stroke-linecap="round" stroke-linejoin="round"/>
    <circle r="8.537" cy="572.362" cx="400" fill="#b93c3c" />
    <use height="100%" width="100%" transform="rotate(-72 399.973 572.358)" id="d" xlink:href="#c"/>
    <use height="100%" width="100%" transform="rotate(-72 399.973 572.358)" id="e" xlink:href="#d"/>
    <use height="100%" width="100%" transform="rotate(-72 399.973 572.358)" id="f" xlink:href="#e"/>
    <use height="100%" width="100%" transform="rotate(-72 399.973 572.358)" xlink:href="#f"/>
  </g>
</svg>
