<svg xmlns="http://www.w3.org/2000/svg" width="300" height="400">
  <g transform="matrix(1.02274 0 0 1.02274 288.325 -406.666)">
    <circle cx="-205.976" cy="485.489" r="59.759"/>
    <circle cx="-205.976" cy="485.489" r="45.07" fill="#fff" />
    <circle cx="-205.976" cy="485.489" r="38.811" fill="#000" />
    <path d="M-184.906 485.344a21.069 21.069-.395 0 0-20.817-20.922 21.069 21.069-.395 0 0-21.31 20.42 21.069 21.069-.395 0 0 20.016 21.69 21.069 21.069-.395 0 0 22.062-19.605" fill="none" stroke="#fff"  stroke-width="6.6" stroke-linecap="round" stroke-linejoin="round" stroke-dasharray="13.20077528,13.20077528"/>
    <circle cx="-205.976" cy="485.489" r="7.853" fill="#fff" />
    <circle cx="-205.976" cy="485.489" r="3.586" fill="#000" />
  </g>
  <g transform="matrix(1.02274 0 0 1.02274 432.443 -406.666)">
    <circle r="59.759" cy="485.489" cx="-205.976"/>
    <circle r="45.07" cy="485.489" cx="-205.976" fill="#fff" />
    <circle r="38.811" cy="485.489" cx="-205.976" fill="#000" />
    <path d="M-184.906 485.344a21.069 21.069-.395 0 0-20.817-20.922 21.069 21.069-.395 0 0-21.31 20.42 21.069 21.069-.395 0 0 20.016 21.69 21.069 21.069-.395 0 0 22.062-19.605" fill="none" stroke="#fff"  stroke-width="6.6" stroke-linecap="round" stroke-linejoin="round" stroke-dasharray="13.20077528,13.20077528"/>
    <circle r="7.853" cy="485.489" cx="-205.976" fill="#fff" />
    <circle r="3.586" cy="485.489" cx="-205.976" fill="#000" />
  </g>
  <g transform="matrix(1.02274 0 0 1.02274 288.325 -186.735)">
    <circle r="59.759" cy="485.489" cx="-205.976"/>
    <circle r="45.07" cy="485.489" cx="-205.976" fill="#fff" />
    <circle r="38.811" cy="485.489" cx="-205.976" fill="#000" />
    <path d="M-184.906 485.344a21.069 21.069-.395 0 0-20.817-20.922 21.069 21.069-.395 0 0-21.31 20.42 21.069 21.069-.395 0 0 20.016 21.69 21.069 21.069-.395 0 0 22.062-19.605" fill="none" stroke="#fff"  stroke-width="6.6" stroke-linecap="round" stroke-linejoin="round" stroke-dasharray="13.20077528,13.20077528"/>
    <circle r="7.853" cy="485.489" cx="-205.976" fill="#fff" />
    <circle r="3.586" cy="485.489" cx="-205.976" fill="#000" />
  </g>
  <g transform="matrix(1.02274 0 0 1.02274 432.443 -186.735)">
    <circle cx="-205.976" cy="485.489" r="59.759"/>
    <circle cx="-205.976" cy="485.489" r="45.07" fill="#fff" />
    <circle cx="-205.976" cy="485.489" r="38.811" fill="#000" />
    <path d="M-184.906 485.344a21.069 21.069-.395 0 0-20.817-20.922 21.069 21.069-.395 0 0-21.31 20.42 21.069 21.069-.395 0 0 20.016 21.69 21.069 21.069-.395 0 0 22.062-19.605" fill="none" stroke="#fff"  stroke-width="6.6" stroke-linecap="round" stroke-linejoin="round" stroke-dasharray="13.20077528,13.20077528"/>
    <circle cx="-205.976" cy="485.489" r="7.853" fill="#fff" />
    <circle cx="-205.976" cy="485.489" r="3.586" fill="#000" />
  </g>
</svg>
