<svg xmlns="http://www.w3.org/2000/svg" width="300" height="400">
  <g transform="translate(0 -662.74)">
    <circle r="61.118" cy="736.819" cx="100.455"/>
    <circle cx="100.568" cy="988.504" r="61.118"/>
    <circle r="61.118" cy="988.504" cx="199.498"/>
    <circle cx="199.498" cy="901.176" r="61.118"/>
    <circle r="61.118" cy="901.176" cx="100.568"/>
    <circle r="46.095" cy="901.176" cx="100.568" fill="#fff" />
    <circle r="39.693" cy="901.176" cx="100.568" fill="#b93c3c" />
    <path d="M122.117 901.027a21.548 21.548-.395 0 0-21.29-21.397 21.548 21.548-.395 0 0-21.795 20.884 21.548 21.548-.395 0 0 20.472 22.183 21.548 21.548-.395 0 0 22.563-20.05" fill="none" stroke="#fff"  stroke-width="6.75" stroke-linecap="round" stroke-linejoin="round" stroke-dasharray="13.50089867,13.50089867"/>
    <circle r="8.032" cy="901.176" cx="100.568" fill="#fff" />
    <circle r="3.668" cy="901.176" cx="100.568" fill="#b93c3c" />
    <circle cx="199.498" cy="901.176" r="46.095" fill="#fff" />
    <circle cx="199.498" cy="901.176" r="39.693" fill="#b93c3c" />
    <path d="M221.047 901.027a21.548 21.548-.395 0 0-21.29-21.397 21.548 21.548-.395 0 0-21.795 20.884 21.548 21.548-.395 0 0 20.471 22.183 21.548 21.548-.395 0 0 22.564-20.05" fill="none" stroke="#fff"  stroke-width="6.75" stroke-linecap="round" stroke-linejoin="round" stroke-dasharray="13.50089867,13.50089867"/>
    <circle cx="199.498" cy="901.176" r="8.032" fill="#fff" />
    <circle cx="199.498" cy="901.176" r="3.668" fill="#b93c3c" />
    <circle cx="100.568" cy="988.504" r="46.095" fill="#fff" />
    <circle cx="100.568" cy="988.504" r="39.693" fill="#b93c3c" />
    <path d="M122.117 988.355a21.548 21.548-.395 0 0-21.29-21.398 21.548 21.548-.395 0 0-21.795 20.885 21.548 21.548-.395 0 0 20.472 22.183 21.548 21.548-.395 0 0 22.563-20.05" fill="none" stroke="#fff"  stroke-width="6.75" stroke-linecap="round" stroke-linejoin="round" stroke-dasharray="13.50089867,13.50089867"/>
    <circle cx="100.568" cy="988.504" r="8.032" fill="#fff" />
    <circle cx="100.568" cy="988.504" r="3.668" fill="#b93c3c" />
    <circle r="46.095" cy="988.504" cx="199.498" fill="#fff" />
    <circle r="39.693" cy="988.504" cx="199.498" fill="#b93c3c" />
    <path d="M221.047 988.355a21.548 21.548-.395 0 0-21.29-21.398 21.548 21.548-.395 0 0-21.795 20.885 21.548 21.548-.395 0 0 20.471 22.183 21.548 21.548-.395 0 0 22.564-20.05" fill="none" stroke="#fff"  stroke-width="6.75" stroke-linecap="round" stroke-linejoin="round" stroke-dasharray="13.50089867,13.50089867"/>
    <circle r="8.032" cy="988.504" cx="199.498" fill="#fff" />
    <circle r="3.668" cy="988.504" cx="199.498" fill="#b93c3c" />
    <circle cx="199.627" cy="736.819" r="61.118"/>
    <circle cx="199.627" cy="736.819" r="46.095" fill="#fff" />
    <circle cx="199.627" cy="736.819" r="39.693" fill="#000" />
    <path d="M221.175 736.67a21.548 21.548-.395 0 0-21.29-21.397 21.548 21.548-.395 0 0-21.794 20.884 21.548 21.548-.395 0 0 20.47 22.183 21.548 21.548-.395 0 0 22.565-20.05" fill="none" stroke="#fff"  stroke-width="6.75" stroke-linecap="round" stroke-linejoin="round" stroke-dasharray="13.50089867,13.50089867"/>
    <circle cx="199.627" cy="736.819" r="8.032" fill="#fff" />
    <circle cx="199.627" cy="736.819" r="3.668" fill="#000" />
    <circle r="46.095" cy="736.819" cx="100.455" fill="#fff" />
    <circle r="39.693" cy="736.819" cx="100.455" fill="#000" />
    <path d="M122.004 736.67a21.548 21.548-.395 0 0-21.291-21.397 21.548 21.548-.395 0 0-21.794 20.884 21.548 21.548-.395 0 0 20.47 22.183 21.548 21.548-.395 0 0 22.565-20.05" fill="none" stroke="#fff"  stroke-width="6.75" stroke-linecap="round" stroke-linejoin="round" stroke-dasharray="13.50089867,13.50089867"/>
    <circle r="8.032" cy="736.819" cx="100.455" fill="#fff" />
    <circle r="3.668" cy="736.819" cx="100.455" fill="#000" />
  </g>
</svg>
